HIERARCHY
ROOT reference
{
  OFFSET 0 0 0
  CHANNELS 6 Xposition Yposition Zposition Zrotation Xrotation Yrotation
  JOINT root
  {
    OFFSET 0 89.8551 0
    CHANNELS 6 Xposition Yposition Zposition Zrotation Xrotation Yrotation
    JOINT Hips
    {
      OFFSET 0 0 0
      CHANNELS 6 Xposition Yposition Zposition Zrotation Xrotation Yrotation
      JOINT Spine
      {
        OFFSET -0.02647 -0.105484 -0.013596
        CHANNELS 6 Xposition Yposition Zposition Zrotation Xrotation Yrotation
        JOINT Spine1
        {
          OFFSET 4.85355 17.1934 5.02749
          CHANNELS 6 Xposition Yposition Zposition Zrotation Xrotation Yrotation
          JOINT Spine2
          {
            OFFSET 3.45713 17.0433 6.48957
            CHANNELS 6 Xposition Yposition Zposition Zrotation Xrotation Yrotation
            JOINT Neck
            {
              OFFSET 5.14073 15.5862 8.66939
              CHANNELS 6 Xposition Yposition Zposition Zrotation Xrotation Yrotation
              JOINT Head
              {
                OFFSET 4.15254 8.55484 6.52395
                CHANNELS 6 Xposition Yposition Zposition Zrotation Xrotation Yrotation
                End Site
                {
                  OFFSET 0 0 0
                }
              }
            }
            JOINT RightShoulder
            {
              OFFSET 3.29962 14.5422 11.6338
              CHANNELS 6 Xposition Yposition Zposition Zrotation Xrotation Yrotation
              JOINT RightArm
              {
                OFFSET -5.33339 -8.03214 12.8704
                CHANNELS 6 Xposition Yposition Zposition Zrotation Xrotation Yrotation
                JOINT RightForearm
                {
                  OFFSET -0.59537 -13.7862 25.9663
                  CHANNELS 6 Xposition Yposition Zposition Zrotation Xrotation Yrotation
                  JOINT RightHand
                  {
                    OFFSET 13.5169 -1.52001 20.8897
                    CHANNELS 6 Xposition Yposition Zposition Zrotation Xrotation Yrotation
                    End Site
                    {
                      OFFSET 0 0 0
                    }
                  }
                }
              }
            }
            JOINT LeftShoulder
            {
              OFFSET 6.99273 16.6182 5.71375
              CHANNELS 6 Xposition Yposition Zposition Zrotation Xrotation Yrotation
              JOINT LeftArm
              {
                OFFSET 6.71869 3.24731 -14.245
                CHANNELS 6 Xposition Yposition Zposition Zrotation Xrotation Yrotation
                JOINT LeftForearm
                {
                  OFFSET -8.81744 -14.5927 -23.9577
                  CHANNELS 6 Xposition Yposition Zposition Zrotation Xrotation Yrotation
                  JOINT LeftHand
                  {
                    OFFSET 10.5264 -21.3111 -7.51207
                    CHANNELS 6 Xposition Yposition Zposition Zrotation Xrotation Yrotation
                    End Site
                    {
                      OFFSET 0 0 0
                    }
                  }
                }
              }
            }
          }
        }
      }
      JOINT RightUpLeg
      {
        OFFSET -4.59321 -0.383102 8.37345
        CHANNELS 6 Xposition Yposition Zposition Zrotation Xrotation Yrotation
        JOINT RightLeg
        {
          OFFSET 10.2172 -39.0461 19.9553
          CHANNELS 6 Xposition Yposition Zposition Zrotation Xrotation Yrotation
          JOINT RightFoot
          {
            OFFSET -4.8531 -40.874 1.15688
            CHANNELS 6 Xposition Yposition Zposition Zrotation Xrotation Yrotation
            JOINT RightToe
            {
              OFFSET 9.73669 -6.85348 13.5043
              CHANNELS 6 Xposition Yposition Zposition Zrotation Xrotation Yrotation
              End Site
              {
                OFFSET 0 0 0
              }
            }
          }
        }
      }
      JOINT LeftUpLeg
      {
        OFFSET 4.59321 0.383102 -8.37344
        CHANNELS 6 Xposition Yposition Zposition Zrotation Xrotation Yrotation
        JOINT LeftLeg
        {
          OFFSET 5.42438 -42.687 -13.2513
          CHANNELS 6 Xposition Yposition Zposition Zrotation Xrotation Yrotation
          JOINT LeftFoot
          {
            OFFSET -11.0954 -37.6886 -12.3302
            CHANNELS 6 Xposition Yposition Zposition Zrotation Xrotation Yrotation
            JOINT LeftToe
            {
              OFFSET 16.3568 -7.51903 0.239277
              CHANNELS 6 Xposition Yposition Zposition Zrotation Xrotation Yrotation
              End Site
              {
                OFFSET 0 0 0
              }
            }
          }
        }
      }
    }
  }
}
MOTION
Frames:	4
Frame Time:	0.0333333
0 0 0 0 0 -0 0 89.8551 -4e-06 163.801 -78.5414 86.6727 0 0 0 -1.06577 -2.03517 0.727552 -0.02647 -0.105484 -0.013596 3.038 -4.74756 3.35566 4.85355 17.1934 5.02749 5.06711 -6.1695 5.3839 3.45713 17.0433 6.48957 3.66493 -4.24833 3.30594 5.14073 15.5862 8.66939 -0.442353 8.42415 21.7829 4.15254 8.55484 6.52395 -3.66824 18.5192 39.7228 3.29962 14.5422 11.6338 -9.97368 -2.17181 -19.9487 -5.33339 -8.03214 12.8704 7.2254 -2.90478 -10.6315 -0.59537 -13.7862 25.9663 3.48392 -4.12022 6.43275 13.5169 -1.52001 20.8897 -80.5145 -54.4824 -15.7031 6.99273 16.6182 5.71375 10.1088 20.8398 -11.1952 6.71869 3.24731 -14.245 42.2771 38.1447 -40.842 -8.81744 -14.5927 -23.9577 -23.5252 18.7265 22.4036 10.5264 -21.3111 -7.51207 -20.0711 11.4408 15.6969 -4.59321 -0.383102 8.37345 -33.3055 -5.08054 39.4221 10.2172 -39.0461 19.9553 13.5536 -15.923 4.23377 -4.8531 -40.874 1.15688 0.499627 20.5518 -2.75685 9.73669 -6.85348 13.5043 0.0001 -0.000155 0.000179 4.59321 0.383102 -8.37344 -20.3222 19.7055 -39.8022 5.42438 -42.687 -13.2513 15.9036 -1.31967 -4.88008 -11.0954 -37.6886 -12.3302 -25.2912 -8.66831 7.78068 16.3568 -7.51903 0.239277 -0.516438 1.92998 -0.0034097 
0 0 0 0 0 -0 0 89.8551 -4e-06 163.816 -78.515 86.64 0 0 0 -1.06577 -2.03517 0.727552 -0.02647 -0.105484 -0.013596 2.9775 -4.74301 3.37164 4.85355 17.1934 5.02749 4.98703 -6.16277 5.41421 3.45713 17.0433 6.48957 3.6134 -4.24166 3.33325 5.14073 15.5862 8.66939 -0.271979 8.30475 21.8828 4.15254 8.55484 6.52395 -3.46498 18.2398 39.9499 3.29962 14.5422 11.6338 -9.87184 -2.07628 -19.8841 -5.33339 -8.03214 12.8704 9.02368 -3.24324 -11.3242 -0.59537 -13.7862 25.9663 3.2953 -3.9203 6.09888 13.5169 -1.52001 20.8897 -80.963 -53.8585 -16.2111 6.99273 16.6182 5.71375 10.2063 21.0175 -11.1568 6.71869 3.24731 -14.245 40.2148 38.3837 -41.2582 -8.81744 -14.5927 -23.9577 -23.7073 18.8147 22.5793 10.5264 -21.3111 -7.51207 -23.1896 13.4482 16.6366 -4.59321 -0.383102 8.37345 -31.6489 -2.6154 32.3993 10.2172 -39.0461 19.9553 13.2335 -15.5856 4.09625 -4.8531 -40.874 1.15688 -2.15939 18.1218 -1.85895 9.73669 -6.85348 13.5043 0.0001 -0.000155 0.000179 4.59321 0.383102 -8.37344 -20.425 19.8668 -35.968 5.42438 -42.687 -13.2513 17.928 -1.58431 -5.47221 -11.0954 -37.6886 -12.3302 -24.8253 -9.53516 7.90871 16.3568 -7.51903 0.239277 -0.516438 1.92998 -0.0034097 
0 0 0 0 0 -0 0 89.8551 -4e-06 164.552 -78.1031 87.3991 0 0 0 -1.06577 -2.03517 0.727552 -0.02647 -0.105484 -0.013596 2.81034 -4.6811 3.35614 4.85355 17.1934 5.02749 4.75477 -6.07872 5.41234 3.45713 17.0433 6.48957 3.46006 -4.17877 3.35092 5.14073 15.5862 8.66939 -0.254944 8.27336 21.9229 4.15254 8.55484 6.52395 -3.46734 18.177 40.0328 3.29962 14.5422 11.6338 -9.74875 -1.91821 -19.8752 -5.33339 -8.03214 12.8704 11.1782 -3.74104 -11.9807 -0.59537 -13.7862 25.9663 3.23066 -3.85123 5.98415 13.5169 -1.52001 20.8897 -81.6209 -52.7997 -17.4542 6.99273 16.6182 5.71375 10.2532 21.0885 -11.2361 6.71869 3.24731 -14.245 39.8895 38.2086 -41.0599 -8.81744 -14.5927 -23.9577 -24.3624 19.1261 23.2115 10.5264 -21.3111 -7.51207 -23.8857 14.1349 16.5023 -4.59321 -0.383102 8.37345 -30.4487 -0.36952 25.8444 10.2172 -39.0461 19.9553 13.2106 -15.5614 4.08646 -4.8531 -40.874 1.15688 -4.56357 16.3059 -1.29847 9.73669 -6.85348 13.5043 0.0001 -0.000155 0.000179 4.59321 0.383102 -8.37344 -18.9982 18.6981 -29.7975 5.42438 -42.687 -13.2513 17.369 -1.50912 -5.30958 -11.0954 -37.6886 -12.3302 -25.9116 -7.8875 7.99944 16.3568 -7.51903 0.239277 -0.516438 1.92998 -0.0034097 
0 0 0 0 0 -0 0 89.8551 -4e-06 165.56 -77.4731 88.4924 0 0 0 -1.06577 -2.03517 0.727552 -0.02647 -0.105484 -0.013596 2.58276 -4.58843 3.31726 4.85355 17.1934 5.02749 4.43535 -5.95361 5.38477 3.45713 17.0433 6.48957 3.2478 -4.086 3.35804 5.14073 15.5862 8.66939 -0.330184 8.29221 21.916 4.15254 8.55484 6.52395 -3.58888 18.2404 40.0074 3.29962 14.5422 11.6338 -9.63044 -1.74068 -19.9088 -5.33339 -8.03214 12.8704 13.4835 -4.33117 -12.5667 -0.59537 -13.7862 25.9663 3.21968 -3.83948 5.96465 13.5169 -1.52001 20.8897 -82.3358 -51.5129 -19.0058 6.99273 16.6182 5.71375 10.2744 21.1028 -11.388 6.71869 3.24731 -14.245 40.5081 37.9939 -40.4242 -8.81744 -14.5927 -23.9577 -24.761 19.311 23.5963 10.5264 -21.3111 -7.51207 -23.5251 14.7637 16.1369 -4.59321 -0.383102 8.37345 -29.2888 1.80626 19.2617 10.2172 -39.0461 19.9553 13.2815 -15.6363 4.11676 -4.8531 -40.874 1.15688 -6.87408 14.6737 -0.933945 9.73669 -6.85348 13.5043 0.0001 -0.000155 0.000179 4.59321 0.383102 -8.37344 -16.4822 17.039 -22.0394 5.42438 -42.687 -13.2513 15.5056 -1.27013 -4.76267 -11.0954 -37.6886 -12.3302 -27.4916 -4.47555 8.21644 16.3568 -7.51903 0.239277 -0.516438 1.92998 -0.0034097 
